<svg xmlns="http://www.w3.org/2000/svg" viewBox="0 0 200 60" fill="#FF9900">
  <path d="M20.5 35.5c1.7-1.3 4.1-1.9 6.4-1.9 2.5 0 4.9.8 6.8 2.3 1.9 1.5 3.1 3.6 3.1 6.1 0 4.8-3.9 8.7-8.7 8.7s-8.7-3.9-8.7-8.7c0-2.4 1-4.6 2.6-6.2l-.5-.3zm30.8-1.2c2.4 0 4.7.9 6.4 2.6 1.7 1.7 2.6 4 2.6 6.4s-.9 4.7-2.6 6.4c-1.7 1.7-4 2.6-6.4 2.6s-4.7-.9-6.4-2.6c-1.7-1.7-2.6-4-2.6-6.4s.9-4.7 2.6-6.4c1.7-1.7 4-2.6 6.4-2.6z"/>
  <path d="M160 30c15.5 11.5 38.5 17.5 58 17.5 19.5 0 42.5-6 58-17.5 2.5-1.5 1-4.5-2-3-14 7.5-32 12-56 12s-42-4.5-56-12c-3-1.5-4.5 1.5-2 3z"/>
  <text x="100" y="25" text-anchor="middle" font-family="Arial, sans-serif" font-size="20" font-weight="bold" fill="#232F3E">amazon</text>
</svg>
